<svg width="28" height="26" viewBox="0 0 28 26" fill="none" xmlns="http://www.w3.org/2000/svg">
<rect width="28" height="5" rx="1" fill="white"/>
<path d="M24.2695 7C24.6729 7.00016 24.9998 7.32711 25 7.73047V15C25 21.0751 20.0751 26 14 26C7.92487 26 3 21.0751 3 15V7.73047C3.00016 7.32711 3.32711 7.00016 3.73047 7H24.2695ZM14 12C11.2386 12 9 14.2386 9 17C9 19.7614 11.2386 22 14 22C16.7614 22 19 19.7614 19 17C19 14.2386 16.7614 12 14 12Z" fill="white"/>
<circle cx="14" cy="17" r="3" fill="white"/>
</svg>
