<svg width="24" height="33" viewBox="0 0 24 33" fill="none" xmlns="http://www.w3.org/2000/svg">
<path d="M11.7051 6.66211C13.7749 6.66227 15.4729 8.24829 15.6523 10.2715C20.1741 11.8913 23.4091 16.2132 23.4092 21.292C23.4092 27.7563 18.1693 32.9969 11.7051 32.9971C5.24069 32.9971 0 27.7564 0 21.292C0.000125114 16.2136 3.23475 11.8917 7.75586 10.2715C7.93529 8.24814 9.63509 6.66211 11.7051 6.66211Z" fill="#EF6F25"/>
<path fill-rule="evenodd" clip-rule="evenodd" d="M12.0382 1.77867C12.6555 0.805056 13.967 0.509923 14.954 1.13574C15.9256 1.7518 16.218 3.0639 15.6006 4.03751C14.9245 5.10383 12.9672 5.76952 11.7889 6.12741C11.6395 4.86265 11.3327 2.89136 12.0382 1.77867Z" fill="#265700"/>
<rect x="8.58984" y="21.0117" width="1.60469" height="2.73742" rx="0.802346" fill="black"/>
<rect x="13.1207" y="21.0117" width="1.60469" height="2.73742" rx="0.802346" fill="black"/>
<path d="M12.2711 24.6914C11.7863 24.7886 11.5179 24.785 11.044 24.6914C11.049 25.1132 11.1695 25.2478 11.6836 25.2578C12.1068 25.2332 12.2723 25.1467 12.2711 24.6914Z" fill="black" stroke="black" stroke-width="0.564697"/>
</svg>
