<svg width="47" height="47" viewBox="0 0 47 47" fill="none" xmlns="http://www.w3.org/2000/svg">
<g filter="url(#filter0_f_31066_3169)">
<circle cx="23.4595" cy="23.4588" r="19" transform="rotate(-1.40282 23.4595 23.4588)" fill="url(#paint0_radial_31066_3169)"/>
</g>
<circle cx="23" cy="23.0007" r="15.4722" transform="rotate(-1.40282 23 23.0007)" fill="url(#paint1_radial_31066_3169)" stroke="#FEFBA8" stroke-width="0.3"/>
<path d="M22.5245 15.4635C22.6741 15.0029 23.3259 15.0029 23.4755 15.4635L24.9084 19.8734C24.9753 20.0794 25.1673 20.2188 25.3839 20.2188H30.0207C30.505 20.2188 30.7064 20.8387 30.3146 21.1234L26.5633 23.8488C26.3881 23.9761 26.3148 24.2018 26.3817 24.4078L27.8145 28.8176C27.9642 29.2783 27.437 29.6613 27.0451 29.3766L23.2939 26.6512C23.1186 26.5239 22.8814 26.5239 22.7061 26.6512L18.9549 29.3766C18.563 29.6613 18.0358 29.2783 18.1855 28.8176L19.6183 24.4078C19.6852 24.2018 19.6119 23.9761 19.4367 23.8488L15.6854 21.1234C15.2936 20.8387 15.495 20.2188 15.9793 20.2188H20.6161C20.8327 20.2188 21.0247 20.0794 21.0916 19.8734L22.5245 15.4635Z" fill="url(#paint2_radial_31066_3169)"/>
<defs>
<filter id="filter0_f_31066_3169" x="0.459473" y="0.458984" width="46" height="46" filterUnits="userSpaceOnUse" color-interpolation-filters="sRGB">
<feFlood flood-opacity="0" result="BackgroundImageFix"/>
<feBlend mode="normal" in="SourceGraphic" in2="BackgroundImageFix" result="shape"/>
<feGaussianBlur stdDeviation="2" result="effect1_foregroundBlur_31066_3169"/>
</filter>
<radialGradient id="paint0_radial_31066_3169" cx="0" cy="0" r="1" gradientTransform="matrix(18.8653 19 -19.0083 18.8736 23.5942 23.4588)" gradientUnits="userSpaceOnUse">
<stop stop-color="#FEFBA8" stop-opacity="0.7"/>
<stop offset="0.192308" stop-color="#FFF962" stop-opacity="0.1"/>
<stop offset="0.399038" stop-color="#FFF84B" stop-opacity="0.2"/>
<stop offset="0.658654" stop-color="#FFF95D" stop-opacity="0.4"/>
<stop offset="1" stop-color="#FEFBA8"/>
</radialGradient>
<radialGradient id="paint1_radial_31066_3169" cx="0" cy="0" r="1" gradientTransform="matrix(15.5114 15.6222 -15.6291 15.5183 23.1108 23.0007)" gradientUnits="userSpaceOnUse">
<stop stop-color="#FEFBA8" stop-opacity="0.7"/>
<stop offset="0.192308" stop-color="#FFF962" stop-opacity="0.1"/>
<stop offset="0.399038" stop-color="#FFF84B" stop-opacity="0.2"/>
<stop offset="0.658654" stop-color="#FFF95D" stop-opacity="0.4"/>
<stop offset="1" stop-color="#FEFBA8"/>
</radialGradient>
<radialGradient id="paint2_radial_31066_3169" cx="0" cy="0" r="1" gradientUnits="userSpaceOnUse" gradientTransform="translate(23 22.4706) rotate(90) scale(6.88235)">
<stop stop-color="#FEFBA8"/>
<stop offset="1" stop-color="#FFF64A"/>
</radialGradient>
</defs>
</svg>
